<mxfile host="app.diagrams.net" modified="2024-04-24T05:58:19.521Z" agent="Mozilla/5.0 (Windows NT 10.0; Win64; x64) AppleWebKit/537.36 (KHTML, like Gecko) Chrome/123.0.0.0 Safari/537.36" etag="OEJfpWhmS5gfI62aBEev" version="24.2.8" type="github" pages="3">
  <diagram id="C5RBs43oDa-KdzZeNtuy" name="Page-1">
    <mxGraphModel dx="1562" dy="845" grid="1" gridSize="10" guides="1" tooltips="1" connect="1" arrows="1" fold="1" page="1" pageScale="1" pageWidth="827" pageHeight="1169" math="0" shadow="0">
      <root>
        <mxCell id="WIyWlLk6GJQsqaUBKTNV-0" />
        <mxCell id="WIyWlLk6GJQsqaUBKTNV-1" parent="WIyWlLk6GJQsqaUBKTNV-0" />
        <mxCell id="p_Uk6F_4o1yBepuzNlMc-2" value="" style="edgeStyle=orthogonalEdgeStyle;rounded=0;orthogonalLoop=1;jettySize=auto;html=1;" edge="1" parent="WIyWlLk6GJQsqaUBKTNV-1" source="WIyWlLk6GJQsqaUBKTNV-3" target="p_Uk6F_4o1yBepuzNlMc-1">
          <mxGeometry relative="1" as="geometry" />
        </mxCell>
        <mxCell id="p_Uk6F_4o1yBepuzNlMc-4" value="" style="edgeStyle=orthogonalEdgeStyle;rounded=0;orthogonalLoop=1;jettySize=auto;html=1;" edge="1" parent="WIyWlLk6GJQsqaUBKTNV-1" source="WIyWlLk6GJQsqaUBKTNV-3" target="p_Uk6F_4o1yBepuzNlMc-3">
          <mxGeometry relative="1" as="geometry" />
        </mxCell>
        <mxCell id="WIyWlLk6GJQsqaUBKTNV-3" value="Keyboard Listener" style="rounded=1;whiteSpace=wrap;html=1;fontSize=12;glass=0;strokeWidth=1;shadow=0;fillColor=#f5f5f5;fontColor=#333333;strokeColor=#666666;" parent="WIyWlLk6GJQsqaUBKTNV-1" vertex="1">
          <mxGeometry x="220" y="30" width="120" height="40" as="geometry" />
        </mxCell>
        <mxCell id="p_Uk6F_4o1yBepuzNlMc-9" style="edgeStyle=orthogonalEdgeStyle;rounded=0;orthogonalLoop=1;jettySize=auto;html=1;exitX=0.5;exitY=1;exitDx=0;exitDy=0;entryX=0.5;entryY=0;entryDx=0;entryDy=0;" edge="1" parent="WIyWlLk6GJQsqaUBKTNV-1" source="p_Uk6F_4o1yBepuzNlMc-1" target="p_Uk6F_4o1yBepuzNlMc-7">
          <mxGeometry relative="1" as="geometry" />
        </mxCell>
        <mxCell id="p_Uk6F_4o1yBepuzNlMc-1" value="&lt;b&gt;on_press&lt;/b&gt; Callback" style="rounded=1;whiteSpace=wrap;html=1;fontSize=12;glass=0;strokeWidth=1;shadow=0;fillColor=#dae8fc;strokeColor=#6c8ebf;" vertex="1" parent="WIyWlLk6GJQsqaUBKTNV-1">
          <mxGeometry x="300" y="120" width="120" height="40" as="geometry" />
        </mxCell>
        <mxCell id="p_Uk6F_4o1yBepuzNlMc-8" value="" style="edgeStyle=orthogonalEdgeStyle;rounded=0;orthogonalLoop=1;jettySize=auto;html=1;" edge="1" parent="WIyWlLk6GJQsqaUBKTNV-1" source="p_Uk6F_4o1yBepuzNlMc-3" target="p_Uk6F_4o1yBepuzNlMc-7">
          <mxGeometry relative="1" as="geometry" />
        </mxCell>
        <mxCell id="p_Uk6F_4o1yBepuzNlMc-3" value="&lt;b&gt;on_release &lt;/b&gt;Callback" style="rounded=1;whiteSpace=wrap;html=1;fontSize=12;glass=0;strokeWidth=1;shadow=0;fillColor=#dae8fc;strokeColor=#6c8ebf;" vertex="1" parent="WIyWlLk6GJQsqaUBKTNV-1">
          <mxGeometry x="140" y="120" width="120" height="40" as="geometry" />
        </mxCell>
        <mxCell id="p_Uk6F_4o1yBepuzNlMc-13" value="" style="edgeStyle=orthogonalEdgeStyle;rounded=0;orthogonalLoop=1;jettySize=auto;html=1;entryX=0.5;entryY=0;entryDx=0;entryDy=0;" edge="1" parent="WIyWlLk6GJQsqaUBKTNV-1" source="p_Uk6F_4o1yBepuzNlMc-7" target="p_Uk6F_4o1yBepuzNlMc-14">
          <mxGeometry relative="1" as="geometry">
            <mxPoint x="210" y="330" as="targetPoint" />
          </mxGeometry>
        </mxCell>
        <mxCell id="p_Uk6F_4o1yBepuzNlMc-17" style="edgeStyle=orthogonalEdgeStyle;rounded=0;orthogonalLoop=1;jettySize=auto;html=1;entryX=0.5;entryY=0;entryDx=0;entryDy=0;" edge="1" parent="WIyWlLk6GJQsqaUBKTNV-1" source="p_Uk6F_4o1yBepuzNlMc-7" target="p_Uk6F_4o1yBepuzNlMc-16">
          <mxGeometry relative="1" as="geometry" />
        </mxCell>
        <mxCell id="p_Uk6F_4o1yBepuzNlMc-7" value="Keyboard&lt;div&gt;Event&lt;/div&gt;" style="rhombus;whiteSpace=wrap;html=1;rounded=1;glass=0;strokeWidth=1;shadow=0;fillColor=#f8cecc;strokeColor=#b85450;" vertex="1" parent="WIyWlLk6GJQsqaUBKTNV-1">
          <mxGeometry x="215" y="210" width="130" height="80" as="geometry" />
        </mxCell>
        <mxCell id="p_Uk6F_4o1yBepuzNlMc-20" value="" style="edgeStyle=orthogonalEdgeStyle;rounded=0;orthogonalLoop=1;jettySize=auto;html=1;" edge="1" parent="WIyWlLk6GJQsqaUBKTNV-1" source="p_Uk6F_4o1yBepuzNlMc-14" target="p_Uk6F_4o1yBepuzNlMc-19">
          <mxGeometry relative="1" as="geometry" />
        </mxCell>
        <mxCell id="p_Uk6F_4o1yBepuzNlMc-14" value="handle &lt;b&gt;on_press&lt;/b&gt;" style="rounded=1;whiteSpace=wrap;html=1;fontSize=12;glass=0;strokeWidth=1;shadow=0;fillColor=#dae8fc;strokeColor=#6c8ebf;" vertex="1" parent="WIyWlLk6GJQsqaUBKTNV-1">
          <mxGeometry x="140" y="330" width="120" height="40" as="geometry" />
        </mxCell>
        <mxCell id="p_Uk6F_4o1yBepuzNlMc-21" style="edgeStyle=orthogonalEdgeStyle;rounded=0;orthogonalLoop=1;jettySize=auto;html=1;exitX=0.5;exitY=1;exitDx=0;exitDy=0;entryX=0.5;entryY=0;entryDx=0;entryDy=0;" edge="1" parent="WIyWlLk6GJQsqaUBKTNV-1" source="p_Uk6F_4o1yBepuzNlMc-16" target="p_Uk6F_4o1yBepuzNlMc-19">
          <mxGeometry relative="1" as="geometry" />
        </mxCell>
        <mxCell id="p_Uk6F_4o1yBepuzNlMc-16" value="handle &lt;b&gt;on_release&lt;/b&gt;" style="rounded=1;whiteSpace=wrap;html=1;fontSize=12;glass=0;strokeWidth=1;shadow=0;fillColor=#dae8fc;strokeColor=#6c8ebf;" vertex="1" parent="WIyWlLk6GJQsqaUBKTNV-1">
          <mxGeometry x="300" y="330" width="120" height="40" as="geometry" />
        </mxCell>
        <mxCell id="p_Uk6F_4o1yBepuzNlMc-19" value="Write to &lt;b&gt;log&lt;/b&gt; file" style="whiteSpace=wrap;html=1;rounded=1;glass=0;strokeWidth=1;shadow=0;fillColor=#fff2cc;strokeColor=#d6b656;" vertex="1" parent="WIyWlLk6GJQsqaUBKTNV-1">
          <mxGeometry x="220" y="430" width="120" height="60" as="geometry" />
        </mxCell>
      </root>
    </mxGraphModel>
  </diagram>
  <diagram name="Page-1 的副本" id="vLwo4Je4Iwetkx_bTOuR">
    <mxGraphModel dx="1562" dy="845" grid="1" gridSize="10" guides="1" tooltips="1" connect="1" arrows="1" fold="1" page="1" pageScale="1" pageWidth="827" pageHeight="1169" math="0" shadow="0">
      <root>
        <mxCell id="wD3oQ_SGvoxCyDad32Rf-0" />
        <mxCell id="wD3oQ_SGvoxCyDad32Rf-1" parent="wD3oQ_SGvoxCyDad32Rf-0" />
        <mxCell id="_8IRz4PJxqvjw-4O5KVU-1" value="" style="edgeStyle=orthogonalEdgeStyle;rounded=0;orthogonalLoop=1;jettySize=auto;html=1;" edge="1" parent="wD3oQ_SGvoxCyDad32Rf-1" source="wD3oQ_SGvoxCyDad32Rf-4" target="_8IRz4PJxqvjw-4O5KVU-0">
          <mxGeometry relative="1" as="geometry" />
        </mxCell>
        <mxCell id="wD3oQ_SGvoxCyDad32Rf-4" value="Clipboard Monitor" style="rounded=1;whiteSpace=wrap;html=1;fontSize=12;glass=0;strokeWidth=1;shadow=0;fillColor=#f5f5f5;fontColor=#333333;strokeColor=#666666;" vertex="1" parent="wD3oQ_SGvoxCyDad32Rf-1">
          <mxGeometry x="220" y="30" width="120" height="40" as="geometry" />
        </mxCell>
        <mxCell id="_8IRz4PJxqvjw-4O5KVU-2" style="edgeStyle=orthogonalEdgeStyle;rounded=0;orthogonalLoop=1;jettySize=auto;html=1;entryX=1;entryY=0.5;entryDx=0;entryDy=0;exitX=1;exitY=0.5;exitDx=0;exitDy=0;" edge="1" parent="wD3oQ_SGvoxCyDad32Rf-1" source="_8IRz4PJxqvjw-4O5KVU-0" target="wD3oQ_SGvoxCyDad32Rf-4">
          <mxGeometry relative="1" as="geometry" />
        </mxCell>
        <mxCell id="_8IRz4PJxqvjw-4O5KVU-3" value="&lt;font style=&quot;font-size: 15px;&quot;&gt;No&lt;/font&gt;" style="edgeLabel;html=1;align=center;verticalAlign=middle;resizable=0;points=[];labelBackgroundColor=#CCCCCC;" vertex="1" connectable="0" parent="_8IRz4PJxqvjw-4O5KVU-2">
          <mxGeometry x="-0.0424" relative="1" as="geometry">
            <mxPoint as="offset" />
          </mxGeometry>
        </mxCell>
        <mxCell id="_8IRz4PJxqvjw-4O5KVU-5" value="" style="edgeStyle=orthogonalEdgeStyle;rounded=0;orthogonalLoop=1;jettySize=auto;html=1;" edge="1" parent="wD3oQ_SGvoxCyDad32Rf-1" source="_8IRz4PJxqvjw-4O5KVU-0" target="_8IRz4PJxqvjw-4O5KVU-4">
          <mxGeometry relative="1" as="geometry" />
        </mxCell>
        <mxCell id="_8IRz4PJxqvjw-4O5KVU-12" value="Yes" style="edgeLabel;html=1;align=center;verticalAlign=middle;resizable=0;points=[];" vertex="1" connectable="0" parent="_8IRz4PJxqvjw-4O5KVU-5">
          <mxGeometry x="-0.005" relative="1" as="geometry">
            <mxPoint as="offset" />
          </mxGeometry>
        </mxCell>
        <mxCell id="_8IRz4PJxqvjw-4O5KVU-0" value="&lt;div&gt;Is&lt;/div&gt;Clipboard Content&lt;div&gt;&lt;b&gt;String?&lt;/b&gt;&lt;/div&gt;" style="rhombus;whiteSpace=wrap;html=1;fillColor=#e1d5e7;strokeColor=#9673a6;rounded=1;glass=0;strokeWidth=1;shadow=0;" vertex="1" parent="wD3oQ_SGvoxCyDad32Rf-1">
          <mxGeometry x="205" y="120" width="150" height="80" as="geometry" />
        </mxCell>
        <mxCell id="_8IRz4PJxqvjw-4O5KVU-6" style="edgeStyle=orthogonalEdgeStyle;rounded=0;orthogonalLoop=1;jettySize=auto;html=1;entryX=1;entryY=0.5;entryDx=0;entryDy=0;exitX=1;exitY=0.5;exitDx=0;exitDy=0;" edge="1" parent="wD3oQ_SGvoxCyDad32Rf-1" source="_8IRz4PJxqvjw-4O5KVU-4" target="wD3oQ_SGvoxCyDad32Rf-4">
          <mxGeometry relative="1" as="geometry" />
        </mxCell>
        <mxCell id="_8IRz4PJxqvjw-4O5KVU-8" value="&lt;span style=&quot;&quot;&gt;&lt;font style=&quot;font-size: 15px;&quot;&gt;No&lt;/font&gt;&lt;/span&gt;" style="edgeLabel;html=1;align=center;verticalAlign=middle;resizable=0;points=[];labelBackgroundColor=#CCCCCC;" vertex="1" connectable="0" parent="_8IRz4PJxqvjw-4O5KVU-6">
          <mxGeometry x="-0.3748" y="-1" relative="1" as="geometry">
            <mxPoint as="offset" />
          </mxGeometry>
        </mxCell>
        <mxCell id="_8IRz4PJxqvjw-4O5KVU-10" value="" style="edgeStyle=orthogonalEdgeStyle;rounded=0;orthogonalLoop=1;jettySize=auto;html=1;" edge="1" parent="wD3oQ_SGvoxCyDad32Rf-1" source="_8IRz4PJxqvjw-4O5KVU-4" target="_8IRz4PJxqvjw-4O5KVU-9">
          <mxGeometry relative="1" as="geometry" />
        </mxCell>
        <mxCell id="_8IRz4PJxqvjw-4O5KVU-11" value="Yes" style="edgeLabel;html=1;align=center;verticalAlign=middle;resizable=0;points=[];" vertex="1" connectable="0" parent="_8IRz4PJxqvjw-4O5KVU-10">
          <mxGeometry x="-0.16" y="1" relative="1" as="geometry">
            <mxPoint as="offset" />
          </mxGeometry>
        </mxCell>
        <mxCell id="_8IRz4PJxqvjw-4O5KVU-4" value="&lt;div&gt;Does Content&amp;nbsp;&lt;/div&gt;&lt;div&gt;&lt;b&gt;Changed&lt;/b&gt;?&lt;/div&gt;" style="rhombus;whiteSpace=wrap;html=1;fillColor=#e1d5e7;strokeColor=#9673a6;rounded=1;glass=0;strokeWidth=1;shadow=0;" vertex="1" parent="wD3oQ_SGvoxCyDad32Rf-1">
          <mxGeometry x="205" y="280" width="150" height="80" as="geometry" />
        </mxCell>
        <mxCell id="_8IRz4PJxqvjw-4O5KVU-9" value="Write To &lt;b&gt;Log &lt;/b&gt;file" style="whiteSpace=wrap;html=1;fillColor=#fff2cc;strokeColor=#d6b656;rounded=1;glass=0;strokeWidth=1;shadow=0;" vertex="1" parent="wD3oQ_SGvoxCyDad32Rf-1">
          <mxGeometry x="220" y="450" width="120" height="60" as="geometry" />
        </mxCell>
      </root>
    </mxGraphModel>
  </diagram>
  <diagram id="hXPKeGBFneRm9O_g2cdF" name="第 3 页">
    <mxGraphModel dx="1562" dy="845" grid="1" gridSize="10" guides="1" tooltips="1" connect="1" arrows="1" fold="1" page="1" pageScale="1" pageWidth="827" pageHeight="1169" math="0" shadow="0">
      <root>
        <mxCell id="0" />
        <mxCell id="1" parent="0" />
        <mxCell id="u3_l_AWVp56VRhf8_rOz-49" value="" style="edgeStyle=orthogonalEdgeStyle;rounded=0;orthogonalLoop=1;jettySize=auto;html=1;" edge="1" parent="1" source="u3_l_AWVp56VRhf8_rOz-2" target="u3_l_AWVp56VRhf8_rOz-48">
          <mxGeometry relative="1" as="geometry" />
        </mxCell>
        <mxCell id="u3_l_AWVp56VRhf8_rOz-51" value="" style="edgeStyle=orthogonalEdgeStyle;rounded=0;orthogonalLoop=1;jettySize=auto;html=1;" edge="1" parent="1" source="u3_l_AWVp56VRhf8_rOz-2" target="u3_l_AWVp56VRhf8_rOz-50">
          <mxGeometry relative="1" as="geometry" />
        </mxCell>
        <mxCell id="u3_l_AWVp56VRhf8_rOz-2" value="&lt;span style=&quot;font-size: 16px;&quot;&gt;sr.log&lt;/span&gt;" style="rounded=1;whiteSpace=wrap;html=1;" vertex="1" parent="1">
          <mxGeometry x="150" y="70" width="120" height="60" as="geometry" />
        </mxCell>
        <mxCell id="u3_l_AWVp56VRhf8_rOz-26" value="Assets" style="childLayout=tableLayout;recursiveResize=0;strokeColor=#98bf21;fillColor=#A7C942;shadow=1;" vertex="1" parent="1">
          <mxGeometry x="80" y="290" width="280" height="160" as="geometry" />
        </mxCell>
        <mxCell id="u3_l_AWVp56VRhf8_rOz-27" style="shape=tableRow;horizontal=0;startSize=0;swimlaneHead=0;swimlaneBody=0;top=0;left=0;bottom=0;right=0;dropTarget=0;collapsible=0;recursiveResize=0;expand=0;fontStyle=0;strokeColor=inherit;fillColor=#ffffff;" vertex="1" parent="u3_l_AWVp56VRhf8_rOz-26">
          <mxGeometry width="280" height="33" as="geometry" />
        </mxCell>
        <mxCell id="u3_l_AWVp56VRhf8_rOz-28" value="ID" style="connectable=0;recursiveResize=0;strokeColor=inherit;fillColor=#A7C942;align=center;fontStyle=1;fontColor=#FFFFFF;html=1;" vertex="1" parent="u3_l_AWVp56VRhf8_rOz-27">
          <mxGeometry width="93" height="33" as="geometry">
            <mxRectangle width="93" height="33" as="alternateBounds" />
          </mxGeometry>
        </mxCell>
        <mxCell id="u3_l_AWVp56VRhf8_rOz-29" value="username" style="connectable=0;recursiveResize=0;strokeColor=inherit;fillColor=#A7C942;align=center;fontStyle=1;fontColor=#FFFFFF;html=1;" vertex="1" parent="u3_l_AWVp56VRhf8_rOz-27">
          <mxGeometry x="93" width="94" height="33" as="geometry">
            <mxRectangle width="94" height="33" as="alternateBounds" />
          </mxGeometry>
        </mxCell>
        <mxCell id="u3_l_AWVp56VRhf8_rOz-30" value="password" style="connectable=0;recursiveResize=0;strokeColor=inherit;fillColor=#A7C942;align=center;fontStyle=1;fontColor=#FFFFFF;html=1;" vertex="1" parent="u3_l_AWVp56VRhf8_rOz-27">
          <mxGeometry x="187" width="93" height="33" as="geometry">
            <mxRectangle width="93" height="33" as="alternateBounds" />
          </mxGeometry>
        </mxCell>
        <mxCell id="u3_l_AWVp56VRhf8_rOz-31" value="" style="shape=tableRow;horizontal=0;startSize=0;swimlaneHead=0;swimlaneBody=0;top=0;left=0;bottom=0;right=0;dropTarget=0;collapsible=0;recursiveResize=0;expand=0;fontStyle=0;strokeColor=inherit;fillColor=#ffffff;" vertex="1" parent="u3_l_AWVp56VRhf8_rOz-26">
          <mxGeometry y="33" width="280" height="32" as="geometry" />
        </mxCell>
        <mxCell id="u3_l_AWVp56VRhf8_rOz-32" value="1" style="connectable=0;recursiveResize=0;strokeColor=inherit;fillColor=inherit;align=center;whiteSpace=wrap;html=1;" vertex="1" parent="u3_l_AWVp56VRhf8_rOz-31">
          <mxGeometry width="93" height="32" as="geometry">
            <mxRectangle width="93" height="32" as="alternateBounds" />
          </mxGeometry>
        </mxCell>
        <mxCell id="u3_l_AWVp56VRhf8_rOz-33" value="admin" style="connectable=0;recursiveResize=0;strokeColor=inherit;fillColor=inherit;align=center;whiteSpace=wrap;html=1;" vertex="1" parent="u3_l_AWVp56VRhf8_rOz-31">
          <mxGeometry x="93" width="94" height="32" as="geometry">
            <mxRectangle width="94" height="32" as="alternateBounds" />
          </mxGeometry>
        </mxCell>
        <mxCell id="u3_l_AWVp56VRhf8_rOz-34" value="123456" style="connectable=0;recursiveResize=0;strokeColor=inherit;fillColor=inherit;align=center;whiteSpace=wrap;html=1;" vertex="1" parent="u3_l_AWVp56VRhf8_rOz-31">
          <mxGeometry x="187" width="93" height="32" as="geometry">
            <mxRectangle width="93" height="32" as="alternateBounds" />
          </mxGeometry>
        </mxCell>
        <mxCell id="u3_l_AWVp56VRhf8_rOz-35" value="" style="shape=tableRow;horizontal=0;startSize=0;swimlaneHead=0;swimlaneBody=0;top=0;left=0;bottom=0;right=0;dropTarget=0;collapsible=0;recursiveResize=0;expand=0;fontStyle=1;strokeColor=inherit;fillColor=#EAF2D3;" vertex="1" parent="u3_l_AWVp56VRhf8_rOz-26">
          <mxGeometry y="65" width="280" height="31" as="geometry" />
        </mxCell>
        <mxCell id="u3_l_AWVp56VRhf8_rOz-36" value="2" style="connectable=0;recursiveResize=0;strokeColor=inherit;fillColor=inherit;whiteSpace=wrap;html=1;" vertex="1" parent="u3_l_AWVp56VRhf8_rOz-35">
          <mxGeometry width="93" height="31" as="geometry">
            <mxRectangle width="93" height="31" as="alternateBounds" />
          </mxGeometry>
        </mxCell>
        <mxCell id="u3_l_AWVp56VRhf8_rOz-37" value="myname" style="connectable=0;recursiveResize=0;strokeColor=inherit;fillColor=inherit;whiteSpace=wrap;html=1;" vertex="1" parent="u3_l_AWVp56VRhf8_rOz-35">
          <mxGeometry x="93" width="94" height="31" as="geometry">
            <mxRectangle width="94" height="31" as="alternateBounds" />
          </mxGeometry>
        </mxCell>
        <mxCell id="u3_l_AWVp56VRhf8_rOz-38" value="mypassw" style="connectable=0;recursiveResize=0;strokeColor=inherit;fillColor=inherit;whiteSpace=wrap;html=1;" vertex="1" parent="u3_l_AWVp56VRhf8_rOz-35">
          <mxGeometry x="187" width="93" height="31" as="geometry">
            <mxRectangle width="93" height="31" as="alternateBounds" />
          </mxGeometry>
        </mxCell>
        <mxCell id="u3_l_AWVp56VRhf8_rOz-39" value="" style="shape=tableRow;horizontal=0;startSize=0;swimlaneHead=0;swimlaneBody=0;top=0;left=0;bottom=0;right=0;dropTarget=0;collapsible=0;recursiveResize=0;expand=0;fontStyle=0;strokeColor=inherit;fillColor=#ffffff;" vertex="1" parent="u3_l_AWVp56VRhf8_rOz-26">
          <mxGeometry y="96" width="280" height="33" as="geometry" />
        </mxCell>
        <mxCell id="u3_l_AWVp56VRhf8_rOz-40" value="3" style="connectable=0;recursiveResize=0;strokeColor=inherit;fillColor=inherit;fontStyle=0;align=center;whiteSpace=wrap;html=1;" vertex="1" parent="u3_l_AWVp56VRhf8_rOz-39">
          <mxGeometry width="93" height="33" as="geometry">
            <mxRectangle width="93" height="33" as="alternateBounds" />
          </mxGeometry>
        </mxCell>
        <mxCell id="u3_l_AWVp56VRhf8_rOz-41" value="110-119-911" style="connectable=0;recursiveResize=0;strokeColor=inherit;fillColor=inherit;fontStyle=0;align=center;whiteSpace=wrap;html=1;" vertex="1" parent="u3_l_AWVp56VRhf8_rOz-39">
          <mxGeometry x="93" width="94" height="33" as="geometry">
            <mxRectangle width="94" height="33" as="alternateBounds" />
          </mxGeometry>
        </mxCell>
        <mxCell id="u3_l_AWVp56VRhf8_rOz-42" value="fassdfgas" style="connectable=0;recursiveResize=0;strokeColor=inherit;fillColor=inherit;fontStyle=0;align=center;whiteSpace=wrap;html=1;" vertex="1" parent="u3_l_AWVp56VRhf8_rOz-39">
          <mxGeometry x="187" width="93" height="33" as="geometry">
            <mxRectangle width="93" height="33" as="alternateBounds" />
          </mxGeometry>
        </mxCell>
        <mxCell id="u3_l_AWVp56VRhf8_rOz-43" value="" style="shape=tableRow;horizontal=0;startSize=0;swimlaneHead=0;swimlaneBody=0;top=0;left=0;bottom=0;right=0;dropTarget=0;collapsible=0;recursiveResize=0;expand=0;fontStyle=1;strokeColor=inherit;fillColor=#EAF2D3;" vertex="1" parent="u3_l_AWVp56VRhf8_rOz-26">
          <mxGeometry y="129" width="280" height="31" as="geometry" />
        </mxCell>
        <mxCell id="u3_l_AWVp56VRhf8_rOz-44" value="&lt;b style=&quot;font-size: 16px;&quot;&gt;...&lt;/b&gt;" style="connectable=0;recursiveResize=0;strokeColor=inherit;fillColor=inherit;whiteSpace=wrap;html=1;" vertex="1" parent="u3_l_AWVp56VRhf8_rOz-43">
          <mxGeometry width="93" height="31" as="geometry">
            <mxRectangle width="93" height="31" as="alternateBounds" />
          </mxGeometry>
        </mxCell>
        <mxCell id="u3_l_AWVp56VRhf8_rOz-45" value="&lt;b style=&quot;font-size: 16px;&quot;&gt;...&lt;/b&gt;" style="connectable=0;recursiveResize=0;strokeColor=inherit;fillColor=inherit;whiteSpace=wrap;html=1;" vertex="1" parent="u3_l_AWVp56VRhf8_rOz-43">
          <mxGeometry x="93" width="94" height="31" as="geometry">
            <mxRectangle width="94" height="31" as="alternateBounds" />
          </mxGeometry>
        </mxCell>
        <mxCell id="u3_l_AWVp56VRhf8_rOz-46" value="&lt;font style=&quot;font-size: 16px;&quot;&gt;&lt;b&gt;...&lt;/b&gt;&lt;/font&gt;" style="connectable=0;recursiveResize=0;strokeColor=inherit;fillColor=inherit;whiteSpace=wrap;html=1;" vertex="1" parent="u3_l_AWVp56VRhf8_rOz-43">
          <mxGeometry x="187" width="93" height="31" as="geometry">
            <mxRectangle width="93" height="31" as="alternateBounds" />
          </mxGeometry>
        </mxCell>
        <mxCell id="u3_l_AWVp56VRhf8_rOz-69" style="edgeStyle=orthogonalEdgeStyle;rounded=0;orthogonalLoop=1;jettySize=auto;html=1;exitX=0.5;exitY=1;exitDx=0;exitDy=0;entryX=0.25;entryY=0;entryDx=0;entryDy=0;strokeColor=#EA6B66;" edge="1" parent="1" source="u3_l_AWVp56VRhf8_rOz-48" target="u3_l_AWVp56VRhf8_rOz-27">
          <mxGeometry relative="1" as="geometry" />
        </mxCell>
        <mxCell id="u3_l_AWVp56VRhf8_rOz-48" value="&lt;span style=&quot;font-size: 16px;&quot;&gt;key log&lt;/span&gt;" style="rounded=1;whiteSpace=wrap;html=1;" vertex="1" parent="1">
          <mxGeometry x="50" y="190" width="120" height="60" as="geometry" />
        </mxCell>
        <mxCell id="u3_l_AWVp56VRhf8_rOz-57" value="" style="shape=table;html=1;whiteSpace=wrap;startSize=0;container=1;collapsible=0;childLayout=tableLayout;strokeWidth=2;fillColor=#e1d5e7;strokeColor=#9673a6;" vertex="1" parent="1">
          <mxGeometry x="440" y="330" width="180" height="80" as="geometry" />
        </mxCell>
        <mxCell id="u3_l_AWVp56VRhf8_rOz-58" value="" style="shape=tableRow;horizontal=0;startSize=0;swimlaneHead=0;swimlaneBody=0;top=0;left=0;bottom=0;right=0;collapsible=0;dropTarget=0;fillColor=none;points=[[0,0.5],[1,0.5]];portConstraint=eastwest;" vertex="1" parent="u3_l_AWVp56VRhf8_rOz-57">
          <mxGeometry width="180" height="27" as="geometry" />
        </mxCell>
        <mxCell id="u3_l_AWVp56VRhf8_rOz-59" value="User" style="shape=partialRectangle;html=1;whiteSpace=wrap;connectable=0;fillColor=none;top=0;left=0;bottom=0;right=0;overflow=hidden;fontStyle=1" vertex="1" parent="u3_l_AWVp56VRhf8_rOz-58">
          <mxGeometry width="90" height="27" as="geometry">
            <mxRectangle width="90" height="27" as="alternateBounds" />
          </mxGeometry>
        </mxCell>
        <mxCell id="u3_l_AWVp56VRhf8_rOz-60" value="Password" style="shape=partialRectangle;html=1;whiteSpace=wrap;connectable=0;fillColor=none;top=0;left=0;bottom=0;right=0;overflow=hidden;fontStyle=1" vertex="1" parent="u3_l_AWVp56VRhf8_rOz-58">
          <mxGeometry x="90" width="90" height="27" as="geometry">
            <mxRectangle width="90" height="27" as="alternateBounds" />
          </mxGeometry>
        </mxCell>
        <mxCell id="u3_l_AWVp56VRhf8_rOz-61" value="" style="shape=tableRow;horizontal=0;startSize=0;swimlaneHead=0;swimlaneBody=0;top=0;left=0;bottom=0;right=0;collapsible=0;dropTarget=0;fillColor=none;points=[[0,0.5],[1,0.5]];portConstraint=eastwest;" vertex="1" parent="u3_l_AWVp56VRhf8_rOz-57">
          <mxGeometry y="27" width="180" height="26" as="geometry" />
        </mxCell>
        <mxCell id="u3_l_AWVp56VRhf8_rOz-62" value="abcabc" style="shape=partialRectangle;html=1;whiteSpace=wrap;connectable=0;fillColor=none;top=0;left=0;bottom=0;right=0;overflow=hidden;" vertex="1" parent="u3_l_AWVp56VRhf8_rOz-61">
          <mxGeometry width="90" height="26" as="geometry">
            <mxRectangle width="90" height="26" as="alternateBounds" />
          </mxGeometry>
        </mxCell>
        <mxCell id="u3_l_AWVp56VRhf8_rOz-63" value="admin" style="shape=partialRectangle;html=1;whiteSpace=wrap;connectable=0;fillColor=none;top=0;left=0;bottom=0;right=0;overflow=hidden;" vertex="1" parent="u3_l_AWVp56VRhf8_rOz-61">
          <mxGeometry x="90" width="90" height="26" as="geometry">
            <mxRectangle width="90" height="26" as="alternateBounds" />
          </mxGeometry>
        </mxCell>
        <mxCell id="u3_l_AWVp56VRhf8_rOz-64" value="" style="shape=tableRow;horizontal=0;startSize=0;swimlaneHead=0;swimlaneBody=0;top=0;left=0;bottom=0;right=0;collapsible=0;dropTarget=0;fillColor=none;points=[[0,0.5],[1,0.5]];portConstraint=eastwest;" vertex="1" parent="u3_l_AWVp56VRhf8_rOz-57">
          <mxGeometry y="53" width="180" height="27" as="geometry" />
        </mxCell>
        <mxCell id="u3_l_AWVp56VRhf8_rOz-65" value="hello" style="shape=partialRectangle;html=1;whiteSpace=wrap;connectable=0;fillColor=none;top=0;left=0;bottom=0;right=0;overflow=hidden;" vertex="1" parent="u3_l_AWVp56VRhf8_rOz-64">
          <mxGeometry width="90" height="27" as="geometry">
            <mxRectangle width="90" height="27" as="alternateBounds" />
          </mxGeometry>
        </mxCell>
        <mxCell id="u3_l_AWVp56VRhf8_rOz-66" value="123456qwer" style="shape=partialRectangle;html=1;whiteSpace=wrap;connectable=0;fillColor=none;top=0;left=0;bottom=0;right=0;overflow=hidden;" vertex="1" parent="u3_l_AWVp56VRhf8_rOz-64">
          <mxGeometry x="90" width="90" height="27" as="geometry">
            <mxRectangle width="90" height="27" as="alternateBounds" />
          </mxGeometry>
        </mxCell>
        <mxCell id="u3_l_AWVp56VRhf8_rOz-70" style="edgeStyle=orthogonalEdgeStyle;rounded=0;orthogonalLoop=1;jettySize=auto;html=1;entryX=0.5;entryY=0;entryDx=0;entryDy=0;strokeColor=#0000FF;" edge="1" parent="1" source="u3_l_AWVp56VRhf8_rOz-50" target="u3_l_AWVp56VRhf8_rOz-27">
          <mxGeometry relative="1" as="geometry" />
        </mxCell>
        <mxCell id="u3_l_AWVp56VRhf8_rOz-50" value="&lt;span style=&quot;font-size: 16px;&quot;&gt;clip log&lt;/span&gt;" style="rounded=1;whiteSpace=wrap;html=1;" vertex="1" parent="1">
          <mxGeometry x="260" y="190" width="120" height="60" as="geometry" />
        </mxCell>
        <mxCell id="u3_l_AWVp56VRhf8_rOz-71" style="edgeStyle=orthogonalEdgeStyle;rounded=0;orthogonalLoop=1;jettySize=auto;html=1;exitX=1;exitY=0.5;exitDx=0;exitDy=0;entryX=0;entryY=0.5;entryDx=0;entryDy=0;strokeColor=#EA6B66;" edge="1" parent="1" source="u3_l_AWVp56VRhf8_rOz-31" target="u3_l_AWVp56VRhf8_rOz-61">
          <mxGeometry relative="1" as="geometry" />
        </mxCell>
        <mxCell id="u3_l_AWVp56VRhf8_rOz-72" style="edgeStyle=orthogonalEdgeStyle;rounded=0;orthogonalLoop=1;jettySize=auto;html=1;entryX=0;entryY=0.5;entryDx=0;entryDy=0;strokeColor=#0000FF;" edge="1" parent="1" source="u3_l_AWVp56VRhf8_rOz-39" target="u3_l_AWVp56VRhf8_rOz-64">
          <mxGeometry relative="1" as="geometry" />
        </mxCell>
      </root>
    </mxGraphModel>
  </diagram>
</mxfile>
